<svg width="106" height="106" viewBox="0 0 106 106" fill="none" xmlns="http://www.w3.org/2000/svg">
<circle cx="53" cy="53" r="53" fill="white"/>
<path d="M63.8036 72.9636L51.3002 54.7973L49.5197 52.2113L35.011 31.1315H41.252L52.9853 48.1793L54.7657 50.7652L70.0445 72.9636H63.8036ZM72.6246 71.1891L56.8765 48.3102L55.0961 45.7227L43.8309 29.3566L42.8972 28.0003H29.0547L32.4306 32.906L47.409 54.6691L49.1895 57.2539L61.2243 74.74L62.1581 76.0947H76.0007L72.6246 71.1891Z" fill="black"/>
<path d="M49.5191 52.2113L51.2996 54.7973L49.1889 57.2539L32.9936 76.0947H29L47.4083 54.6691L49.5191 52.2113Z" fill="black"/>
<path d="M74.3332 27.9998L56.8756 48.3096L54.7648 50.7646L52.9844 48.1787L55.0952 45.7221L66.9207 31.9578L70.3395 27.9998H74.3332Z" fill="black"/>
</svg>
