<svg width="106" height="106" viewBox="0 0 106 106" fill="none" xmlns="http://www.w3.org/2000/svg">
<circle cx="53" cy="53" r="53" fill="white"/>
<path d="M77.8918 30.9939C77.6947 30.4053 77.4595 30.2504 77.092 30.1032C76.2884 29.8012 74.9272 30.2581 74.9272 30.2581C74.9272 30.2581 26.7372 47.8229 23.9841 49.7668C23.3913 50.185 23.1927 50.4328 23.0942 50.7193C22.6183 52.0979 24.101 52.7097 24.101 52.7097L36.5218 56.8143C36.5218 56.8143 36.9847 56.884 37.1497 56.7756C39.9754 54.9634 65.5787 38.5758 67.0553 38.0259C67.2883 37.9562 67.4609 38.0337 67.4151 38.1963C66.8238 40.3029 44.5862 60.3381 44.5862 60.3381C44.5862 60.3381 44.5014 60.4465 44.448 60.5705L44.4189 60.555L43.2601 73.047C43.2601 73.047 42.7743 76.8728 46.5487 73.047C49.2116 70.3441 51.7882 68.0827 53.0776 66.9907C57.3485 69.9801 61.9448 73.2871 63.9287 75.0141C64.9248 75.8815 65.7582 76.0209 66.4442 75.9977C68.3272 75.928 68.8527 73.8292 68.8527 73.8292C68.8527 73.8292 77.6344 37.995 77.9277 33.1933C77.9567 32.7209 77.9965 32.4266 77.9995 32.1013C78.0049 31.6521 77.9636 31.203 77.8918 30.9939Z" fill="black"/>
</svg>
